<?xml version="1.0" standalone="no"?>
<!DOCTYPE svg PUBLIC "-//W3C//DTD SVG 20010904//EN"
 "http://www.w3.org/TR/2001/REC-SVG-20010904/DTD/svg10.dtd">
<svg version="1.0" xmlns="http://www.w3.org/2000/svg"
 width="300.000000pt" height="300.000000pt" viewBox="0 0 300.000000 300.000000"
 preserveAspectRatio="xMidYMid meet">

<g transform="translate(0.000000,300.000000) scale(0.100000,-0.100000)"
fill="#000000" stroke="none">
<path d="M953 2648 l-33 -47 0 -341 c0 -377 2 -388 61 -409 22 -8 223 -11 648
-11 527 0 620 2 645 15 25 13 33 13 73 0 57 -20 157 -19 216 1 44 15 50 15 94
-3 29 -11 74 -18 115 -18 99 0 103 6 103 158 0 67 -5 130 -10 140 -10 16 -14
14 -44 -17 -32 -33 -32 -35 -20 -75 17 -57 2 -88 -46 -97 -47 -8 -100 7 -99
28 1 9 5 52 8 95 l7 78 -33 -40 c-26 -31 -34 -50 -38 -95 l-5 -55 -59 -7 c-53
-7 -181 4 -193 16 -3 2 0 36 7 75 7 43 8 76 3 86 -8 14 -14 11 -38 -21 -22
-29 -28 -47 -26 -79 3 -58 -13 -68 -117 -73 l-87 -4 -18 92 c-18 94 -53 179
-66 164 -5 -5 -16 -29 -25 -54 -16 -44 -16 -46 9 -94 14 -27 25 -62 25 -78 l0
-28 -138 0 c-137 0 -139 0 -186 31 -27 16 -90 68 -141 114 -99 89 -145 115
-205 115 -48 0 -84 -28 -116 -92 -22 -44 -23 -50 -8 -44 87 33 113 38 151 26
66 -22 173 -109 173 -141 0 -5 -109 -9 -264 -9 -208 0 -266 3 -275 13 -7 9
-12 128 -13 373 l-3 359 -32 -47z"/>
<path d="M583 2476 l-22 -44 55 -37 c30 -21 56 -36 58 -34 2 2 13 23 24 45
l21 42 -54 36 c-30 20 -56 36 -58 36 -2 0 -13 -20 -24 -44z"/>
<path d="M322 2391 c-12 -21 -22 -50 -22 -64 0 -20 -7 -28 -36 -37 -71 -24
-154 -128 -154 -193 0 -33 33 -72 86 -103 l45 -27 35 34 34 33 0 -27 c0 -49
22 -129 41 -148 17 -17 36 -19 209 -19 219 0 205 -7 205 100 -1 99 -48 270
-74 270 -5 0 -17 -22 -26 -50 -16 -49 -16 -51 9 -114 41 -102 50 -96 -134 -96
-147 0 -160 1 -170 19 -6 12 -10 107 -10 240 0 122 -4 221 -8 221 -5 0 -18
-17 -30 -39z m-12 -215 c0 -78 -16 -104 -51 -86 -28 15 -79 60 -79 71 0 5 15
15 34 24 18 9 44 27 56 40 13 14 27 22 31 19 5 -3 9 -33 9 -68z"/>
<path d="M1873 1646 l-22 -44 56 -37 c30 -20 56 -35 58 -33 1 2 12 22 23 44
l21 42 -54 36 c-30 20 -56 36 -58 36 -2 0 -13 -20 -24 -44z"/>
<path d="M933 1368 l-42 -43 15 -51 c11 -39 14 -99 12 -270 l-3 -219 -88 2
c-99 3 -122 14 -178 84 -45 57 -69 64 -130 38 -59 -26 -112 -84 -133 -147 -26
-73 -23 -78 56 -118 63 -32 70 -38 55 -49 -23 -16 -159 -40 -227 -39 -72 0
-128 27 -146 70 -19 46 -18 79 9 172 27 94 17 97 -23 8 -76 -168 -59 -279 53
-339 35 -18 58 -22 142 -22 92 0 105 3 170 33 102 49 132 74 140 121 10 63 1
76 -68 101 -34 12 -73 29 -85 37 l-24 15 24 25 c29 31 70 53 99 53 14 0 49
-26 95 -70 l72 -71 129 3 128 3 5 250 c4 218 7 254 23 284 19 33 19 34 -4 65
-13 17 -26 50 -29 74 l-5 43 -42 -43z"/>
<path d="M1223 1365 l-33 -42 0 -276 c0 -158 4 -287 10 -302 15 -40 64 -55
178 -55 103 0 182 17 238 51 31 19 31 19 49 -1 39 -43 88 -51 290 -48 l190 3
3 60 c4 69 -20 178 -50 226 l-21 34 -24 -52 -24 -52 21 -29 c11 -15 23 -45 27
-65 l6 -38 -164 5 c-90 2 -172 7 -182 11 -20 8 -19 11 10 87 16 44 16 49 1 82
-31 63 -132 95 -196 62 -26 -13 -63 -67 -76 -111 -5 -18 -1 -20 34 -20 30 0
47 -7 67 -27 34 -34 22 -52 -45 -66 -68 -15 -235 -23 -252 -12 -13 8 -16 58
-20 314 l-5 304 -32 -43z"/>
<path d="M2010 1278 c-11 -18 -20 -35 -20 -38 1 -6 89 -60 98 -60 4 0 16 14
26 31 21 35 18 40 -46 78 l-37 22 -21 -33z"/>
<path d="M1860 1268 c-10 -17 -17 -34 -15 -37 2 -3 24 -17 50 -31 l46 -25 19
25 c11 14 20 30 20 35 0 10 -80 65 -94 65 -3 0 -15 -14 -26 -32z"/>
<path d="M2759 985 c-51 -28 -104 -137 -91 -187 14 -55 75 -108 125 -108 36 0
39 -10 14 -55 -31 -54 -96 -101 -161 -116 -48 -10 -61 -10 -103 6 -26 10 -65
29 -87 42 l-38 25 23 -43 c31 -55 73 -86 137 -100 115 -27 214 27 274 149 32
64 33 72 33 182 0 126 -10 159 -61 199 -31 24 -31 24 -65 6z m55 -124 c9 -10
18 -31 19 -47 2 -25 -1 -29 -23 -26 -48 5 -80 23 -80 46 0 45 52 62 84 27z"/>
</g>
</svg>
